<svg width="80" height="80" viewBox="0 0 80 80" fill="none" xmlns="http://www.w3.org/2000/svg">
  <defs>
    <linearGradient id="bag" x1="24" y1="10" x2="60" y2="70" gradientUnits="userSpaceOnUse">
      <stop offset="0%" stop-color="#7F3AFF"/>
      <stop offset="100%" stop-color="#3112A0"/>
    </linearGradient>
    <linearGradient id="coin" x1="38" y1="34" x2="46" y2="50" gradientUnits="userSpaceOnUse">
      <stop offset="0%" stop-color="#FFE082"/>
      <stop offset="100%" stop-color="#FFB300"/>
    </linearGradient>
  </defs>
  <path d="M28 16c0-4 5-10 12-10s12 6 12 10l6 6-6 8c0 12-6 22-12 22s-12-10-12-22l-6-8 6-6z" fill="url(#bag)"/>
  <path d="M26 28l-8 10 4 20c1 5 5 8 10 8h16c5 0 9-3 10-8l4-20-8-10H26z" fill="#1C083F" opacity="0.6"/>
  <circle cx="40" cy="40" r="9" fill="url(#coin)" stroke="#FFECB3" stroke-width="2"/>
  <path d="M40 34v12" stroke="#7C5900" stroke-width="2" stroke-linecap="round"/>
  <path d="M36 38h8" stroke="#7C5900" stroke-width="2" stroke-linecap="round"/>
</svg>
